<svg height="512" viewBox="0 0 64 64" width="512" xmlns="http://www.w3.org/2000/svg"><g id="Taxi-Placeholder-Station-Smartphone-Location"><path d="m41 8v48a4.712 4.712 0 0 1 -.1 1 5 5 0 0 1 -4.9 4h-28a5 5 0 0 1 -5-5v-48a5 5 0 0 1 5-5h28a5 5 0 0 1 5 5z" fill="#5aaae7"/><path d="m24 53h-4a2 2 0 0 0 0 4h4a2 2 0 0 0 0-4z" fill="#e6e7e8"/><path d="m27 26c0 5-8 14-8 14s-8-9-8-14a8 8 0 0 1 16 0z" fill="#3d9ae2"/><path d="m25 24c0 5-8 14-8 14s-8-9-8-14a8 8 0 0 1 16 0z" fill="#ff5023"/><circle cx="17" cy="23" fill="#ff9811" r="2"/><circle cx="60" cy="43" fill="#ebbf00" r="2"/><circle cx="26" cy="43" fill="#ebbf00" r="2"/><path d="m61 47v8a2.006 2.006 0 0 1 -2 2h-32a1.976 1.976 0 0 1 -1.5-.69 1.925 1.925 0 0 1 -.5-1.31v-8a2.006 2.006 0 0 1 2-2h32a2.006 2.006 0 0 1 2 2z" fill="#ffd422"/><path d="m31 57v3a1 1 0 0 1 -1 1h-4a1 1 0 0 1 -1-1v-5a1.925 1.925 0 0 0 .5 1.31 1.976 1.976 0 0 0 1.5.69z" fill="#57565c"/><path d="m61 55v5a1 1 0 0 1 -1 1h-4a1 1 0 0 1 -1-1v-3h4a2.006 2.006 0 0 0 2-2z" fill="#57565c"/><circle cx="55" cy="51" fill="#ff9811" r="2"/><path d="m56 37h-26l.81-3.24a1 1 0 0 1 .97-.76h22.44a1 1 0 0 1 .97.76z" fill="#ffd422"/><path d="m38 29h10v4h-10z" fill="#ebbf00"/><path d="m59 45h-32l3-8h26z" fill="#e6e7e8"/><circle cx="31" cy="51" fill="#ff9811" r="2"/><path d="m27 57h4v2h-4a1.976 1.976 0 0 1 -1.5-.69 1.925 1.925 0 0 1 -.5-1.31v-2a1.925 1.925 0 0 0 .5 1.31 1.976 1.976 0 0 0 1.5.69z" fill="#3e3d42"/><path d="m61 55v2a2.006 2.006 0 0 1 -2 2h-4v-2h4a2.006 2.006 0 0 0 2-2z" fill="#3e3d42"/><path d="m59 45h-14l8-8h3z" fill="#e0e0e2"/><path d="m38 52h10v2h-10z"/><path d="m38 48h10v2h-10z"/><path d="m55 48a3 3 0 1 0 3 3 3 3 0 0 0 -3-3zm0 4a1 1 0 1 1 1-1 1 1 0 0 1 -1 1z"/><path d="m31 48a3 3 0 1 0 3 3 3 3 0 0 0 -3-3zm0 4a1 1 0 1 1 1-1 1 1 0 0 1 -1 1z"/><path d="m63 43a3.009 3.009 0 0 0 -3-3 2.942 2.942 0 0 0 -1.62.49l-1.42-3.79-.8-3.19a1.992 1.992 0 0 0 -1.94-1.51h-5.22v-3a1 1 0 0 0 -1-1h-10a1 1 0 0 0 -1 1v3h-5.22a1.992 1.992 0 0 0 -1.94 1.51l-.8 3.19-1.42 3.79a2.942 2.942 0 0 0 -1.62-.49 3 3 0 0 0 -1.6 5.53 2.942 2.942 0 0 0 -.4 1.47v13a2.006 2.006 0 0 0 2 2h4a2.006 2.006 0 0 0 2-2v-2h22v2a2.006 2.006 0 0 0 2 2h4a2.006 2.006 0 0 0 2-2v-13a2.942 2.942 0 0 0 -.4-1.47 2.983 2.983 0 0 0 1.4-2.53zm-24-13h8v2h-8zm-7.22 4h22.44l.5 2h-23.44zm-1.09 4h24.62l2.25 6h-17.7a3.983 3.983 0 0 0 -7.72 0h-3.7zm7.03 6h-3.44a1.979 1.979 0 0 1 3.44 0zm-12.72-1a1 1 0 0 1 1-1 .993.993 0 0 1 .86.51l-.53 1.43a.96.96 0 0 1 -.33.06 1 1 0 0 1 -1-1zm5 17h-4v-2.18a3 3 0 0 0 1 .18h3zm30 0h-4v-2h3a3 3 0 0 0 1-.18zm0-5a1 1 0 0 1 -1 1h-32a1 1 0 0 1 -1-1v-8a1 1 0 0 1 1-1h32a1 1 0 0 1 1 1zm0-11a.96.96 0 0 1 -.33-.06l-.53-1.43a.973.973 0 0 1 .86-.51 1 1 0 0 1 0 2z"/><path d="m4 56v-48a4 4 0 0 1 4-4h28a4 4 0 0 1 4 4v18h2v-18a6.006 6.006 0 0 0 -6-6h-28a6.006 6.006 0 0 0 -6 6v48a6.006 6.006 0 0 0 6 6h14v-2h-14a4 4 0 0 1 -4-4z"/><path d="m36 60h-2v2h2a5.954 5.954 0 0 0 3.6-1.2l-1.2-1.6a3.963 3.963 0 0 1 -2.4.8z"/><path d="m17 55a3 3 0 0 0 3 3h2v-2h-2a1 1 0 0 1 0-2h2v-2h-2a3 3 0 0 0 -3 3z"/><path d="m15 6h2v2h-2z"/><path d="m19 6h6v2h-6z"/><path d="m8 24c0 5.319 7.916 14.285 8.252 14.665a1 1 0 0 0 1.5 0c.332-.38 8.248-9.346 8.248-14.665a9 9 0 0 0 -18 0zm9-7a7.008 7.008 0 0 1 7 7c0 3.4-4.521 9.507-7 12.467-2.479-2.96-7-9.067-7-12.467a7.008 7.008 0 0 1 7-7z"/><path d="m17 26a3 3 0 1 0 -3-3 3 3 0 0 0 3 3zm0-4a1 1 0 1 1 -1 1 1 1 0 0 1 1-1z"/></g></svg>